<svg width="407" height="385" viewBox="0 0 407 385" fill="none" xmlns="http://www.w3.org/2000/svg">
<g style="mix-blend-mode:luminosity">
<path fill-rule="evenodd" clip-rule="evenodd" d="M109.691 334.484C109.691 334.484 98.9973 351.518 100.308 355.068C101.787 359.168 112.565 371.552 112.565 371.552L143.292 370.749L129.598 366.099L122.201 353.589L131.12 337.274L109.691 334.484Z" fill="#F45B49" stroke="#1C2628" stroke-width="2.13" stroke-linecap="round" stroke-linejoin="round"/>
<path fill-rule="evenodd" clip-rule="evenodd" d="M149.124 370.411L130.316 370.834L94.3052 370.327L97.8133 351.856L113.832 351.434C113.832 351.434 113.283 347.207 117.467 347.376C120.679 347.503 130.147 357.309 138.896 360.014C150.9 363.733 149.124 370.411 149.124 370.411Z" fill="#F3A13B"/>
<path fill-rule="evenodd" clip-rule="evenodd" d="M148.913 368.002L108.211 367.791C107.027 367.791 106.097 368.636 106.055 369.693V370.369C106.055 371.426 106.985 372.271 108.168 372.271L148.871 372.483C150.054 372.483 150.984 371.637 151.026 370.581V369.904C151.026 368.848 150.096 368.002 148.913 368.002Z" fill="#1C2628" stroke="#1C2628" stroke-width="2.13" stroke-linecap="round" stroke-linejoin="round"/>
<path fill-rule="evenodd" clip-rule="evenodd" d="M111.634 372.314L92.4033 372.018L93.5868 361.916C93.5868 361.916 103.35 361.367 106.689 364.494C110.071 367.707 111.634 372.314 111.634 372.314Z" fill="#1C2628" stroke="#1C2628" stroke-width="2.13" stroke-linecap="round" stroke-linejoin="round"/>
<path fill-rule="evenodd" clip-rule="evenodd" d="M140.798 360.605L118.228 346.784C118.228 346.784 114.636 347.334 113.706 348.813C112.776 350.25 114.424 352.575 114.424 352.575C114.424 352.575 127.315 361.197 132.81 362.93C136.656 364.156 140.798 360.605 140.798 360.605Z" fill="#1C2628" stroke="#1C2628" stroke-width="2.13" stroke-linecap="round" stroke-linejoin="round"/>
<path d="M120.51 355.153L112.649 369.777" stroke="#1C2628" stroke-width="2.13" stroke-linecap="round" stroke-linejoin="round"/>
<path d="M97.8136 351.856L95.9116 365.255" stroke="#1C2628" stroke-width="2.13" stroke-linecap="round" stroke-linejoin="round"/>
<path d="M220.808 179.326C206.395 200.332 186.911 222.649 154.281 240.189C121.652 257.73 75.6662 270.452 55.3362 252.151C34.9639 234.061 40.543 184.694 44.1356 146.443C47.7283 108.403 49.588 81.5222 60.7885 59.2057C71.989 37.1427 92.3613 19.6023 113.579 17.7426C134.543 15.8406 156.31 29.873 190.207 30.1688C224.147 30.4647 270.217 17.0241 282.939 29.5349C295.661 42.0456 274.824 80.5078 259.777 109.46C244.773 138.37 235.221 158.277 220.808 179.326Z" fill="#F3A13B"/>
<path fill-rule="evenodd" clip-rule="evenodd" d="M285.94 26.407C283.024 23.4906 257.115 41.9609 257.115 41.9609C257.115 41.9609 240.842 88.2424 236.827 97.2873C232.769 106.417 218.061 130.424 218.061 130.424C218.061 130.424 188.348 128.48 174.273 140.821C166.031 148.049 156.394 174.761 156.394 174.761C156.394 174.761 143.038 177.213 135.6 170.408C131.331 166.519 126.681 155.15 123.638 149.866C121.356 145.978 120.088 147.415 120.088 147.415L123.258 168.379L115.65 166.773L124.061 180.298C124.061 180.298 152.083 204.643 163.115 197.373C174.146 190.104 182.684 177.213 182.684 177.213L182.726 208.109L234.671 190.907L235.263 157.39C235.263 157.39 253.184 129.283 261.341 99.5274C265.187 85.4105 269.625 56.7541 269.625 56.7541C269.625 56.7541 286.659 51.4286 288.772 38.5374C290.125 30.211 289.448 29.9151 285.94 26.407Z" fill="#F45B49" stroke="#1C2628" stroke-width="2.13" stroke-linecap="round" stroke-linejoin="round"/>
<path d="M284.418 30.5076C282.728 29.62 280.826 29.4509 279.177 29.8313C278.205 30.0426 277.36 30.423 276.641 30.888C276.599 30.4653 276.515 30.0426 276.472 29.5777C276.388 28.7324 276.303 27.8871 276.219 27.0417C277.022 26.3232 277.783 25.6047 278.501 24.7594C280.234 22.8151 281.502 20.4482 281.882 17.8277C282.263 15.2495 282.559 12.629 281.84 10.2621C281.671 9.6281 281.46 9.2477 281.079 8.44465C280.953 8.14878 280.699 7.59932 280.361 7.1344C280.023 6.66947 279.389 6.28907 278.67 6.33134C277.275 6.5004 276.599 7.30346 276.134 7.89519C275.923 8.23332 275.754 8.52918 275.585 8.86731C275.5 9.03637 275.458 9.16317 275.373 9.28997L275.331 9.3745C275.289 9.45903 275.289 9.45903 275.289 9.54356L275.204 9.79716C274.782 11.1074 274.782 12.3331 274.824 13.5166C274.824 14.6578 274.866 15.799 274.866 16.9401C274.824 18.7153 274.908 20.4905 274.993 22.2234C274.359 22.9419 273.725 23.6182 273.007 24.2522L271.739 25.3934C271.316 25.7738 270.851 26.1964 270.386 26.6613C268.611 28.4788 267.089 30.5921 266.159 33.0435C265.187 35.4527 265.103 38.4113 266.244 40.8205C267.343 43.2297 269.372 44.9203 271.527 45.8924C273.64 46.8223 275.838 47.2027 277.994 47.1604C278.163 48.3016 278.29 49.3583 278.417 50.4149C278.966 53.1622 277.909 55.5291 276.176 56.2899C274.908 56.7971 273.725 56.459 272.964 55.9095C273.049 55.9095 273.133 55.9518 273.218 55.9518C274.486 56.0363 275.585 55.1065 275.669 53.8385C275.754 52.5705 274.824 51.5138 273.556 51.387C272.288 51.3025 271.231 52.2324 271.105 53.5003C271.105 53.5849 271.105 53.7117 271.105 53.7962C271.147 54.2611 271.316 54.7261 271.612 55.0642C271.696 55.191 271.739 55.2755 271.865 55.4023C272.203 55.8672 272.753 56.3744 273.556 56.7126C274.359 57.0507 275.331 57.2198 276.43 56.9239C277.529 56.628 278.586 55.7404 279.135 54.4725C279.389 53.8385 279.6 53.1622 279.642 52.4437C279.642 51.6829 279.6 51.0066 279.515 50.2881C279.389 49.2737 279.262 48.2171 279.093 47.1182C280.995 46.9491 282.855 46.3996 284.503 45.5543C286.363 44.4977 287.842 42.807 288.434 40.8205C289.11 38.834 288.983 36.7207 288.265 34.861C287.504 33.0013 286.151 31.3952 284.418 30.5076ZM277.022 12.1641C277.402 11.2765 278.163 8.82504 279.558 9.33223C280.445 9.67036 280.488 10.8538 280.445 11.6569C280.319 13.4743 279.811 15.2918 278.839 16.8556C277.909 18.3772 276.98 19.772 275.923 21.1667C275.881 19.8142 275.881 18.4195 275.965 17.0669C276.05 15.3763 276.43 13.6856 277.022 12.1641ZM272.415 44.2441C270.682 43.2297 269.203 41.7081 268.569 39.8906C267.935 38.0732 268.188 36.129 269.076 34.3115C270.006 32.5363 271.485 30.9725 273.091 29.5777C273.471 29.2396 273.894 28.9015 274.359 28.5633L275.035 28.0561C275.204 27.9293 275.373 27.8025 275.5 27.6757C275.585 28.352 275.627 29.0283 275.712 29.6622C275.796 30.254 275.838 30.8034 275.923 31.3952C274.528 32.4941 273.598 33.9734 273.218 35.2836C272.584 37.5237 272.964 39.2567 273.345 40.3133C273.514 40.8628 273.725 41.2432 273.852 41.4968C273.979 41.7504 274.063 41.8772 274.063 41.8772C274.063 41.8772 273.936 41.2854 273.894 40.1865C273.852 39.1299 273.894 37.5237 274.739 35.8754C275.078 35.1991 275.585 34.5229 276.219 33.9734C276.515 36.3826 276.853 38.7072 277.149 40.905C277.36 42.5957 277.614 44.2441 277.825 45.8079C275.923 45.7234 274.063 45.2162 272.415 44.2441ZM287.166 40.4824C286.828 42.173 285.644 43.7791 283.953 44.6245C282.474 45.4275 280.699 45.8079 278.882 45.8502C278.628 44.2441 278.374 42.5534 278.078 40.7782C277.698 38.4536 277.318 35.9599 276.98 33.3817C277.74 32.8745 278.628 32.4518 279.685 32.2827C282.009 31.9446 284.756 33.0013 286.278 35.7063C287.039 37.0588 287.462 38.7917 287.166 40.4824Z" fill="#1C2628" stroke="#1C2628" stroke-width="2.13" stroke-linecap="round" stroke-linejoin="round"/>
<path fill-rule="evenodd" clip-rule="evenodd" d="M292.829 25.8156L292.491 25.0125C291.984 23.7868 290.589 23.1951 289.363 23.7023L282.221 26.4496C280.995 26.9145 280.403 28.267 280.91 29.4927L281.206 30.2958C281.713 31.5215 283.108 32.1132 284.334 31.606L291.477 28.8587C292.745 28.3515 293.337 26.999 292.829 25.8156Z" fill="#F45B49" stroke="#1C2628" stroke-width="2.13" stroke-linecap="round" stroke-linejoin="round"/>
<path fill-rule="evenodd" clip-rule="evenodd" d="M292.872 31.3947L292.534 30.5916C292.026 29.3659 290.632 28.7742 289.406 29.2814L282.263 32.0286C281.037 32.4936 280.446 33.8461 280.953 35.0718L281.291 35.8749C281.798 37.1006 283.193 37.6923 284.419 37.1851L291.562 34.4378C292.787 33.9729 293.379 32.6204 292.872 31.3947Z" fill="#F45B49" stroke="#1C2628" stroke-width="2.13" stroke-linecap="round" stroke-linejoin="round"/>
<path fill-rule="evenodd" clip-rule="evenodd" d="M292.618 37.5656L292.28 36.7625C291.773 35.5368 290.378 34.9451 289.153 35.4523L282.01 38.1996C280.784 38.6645 280.192 40.017 280.699 41.2427L281.037 42.0458C281.545 43.2715 282.939 43.8632 284.165 43.356L291.308 40.6087C292.492 40.1438 293.083 38.7913 292.618 37.5656Z" fill="#F45B49" stroke="#1C2628" stroke-width="2.13" stroke-linecap="round" stroke-linejoin="round"/>
<path fill-rule="evenodd" clip-rule="evenodd" d="M267.554 51.7246C267.977 48.7659 268.4 42.8064 266.286 40.4395C264.173 38.0726 271.527 32.4935 269.456 29.9152C266.033 25.6886 257.833 41.9188 257.833 41.9188" fill="#F45B49"/>
<path d="M267.554 51.7246C267.977 48.7659 268.4 42.8064 266.286 40.4395C264.173 38.0726 271.527 32.4935 269.456 29.9152C266.033 25.6886 257.833 41.9188 257.833 41.9188" stroke="#1C2628" stroke-width="2.13" stroke-linecap="round" stroke-linejoin="round"/>
<path fill-rule="evenodd" clip-rule="evenodd" d="M187.883 107.854C183.783 94.5826 189.193 84.3542 208.128 86.7634C210.326 87.0593 212.947 87.3129 214.933 88.4541C223.894 93.6951 222.203 99.7814 223.302 101.007C226.514 104.684 228.036 118.843 229.388 122.816L185.009 122.351L187.883 107.854Z" fill="#1C2628" stroke="#1C2628" stroke-width="2.13" stroke-linecap="round" stroke-linejoin="round"/>
<path fill-rule="evenodd" clip-rule="evenodd" d="M199.295 300.081C199.295 300.081 206.311 335.12 212.482 354.266C216.92 368.045 219.118 373.413 208.424 374.512C197.689 375.611 186.319 374.005 186.319 374.005L166.75 376.118C166.75 376.118 159.311 375.864 166.919 370.623C174.442 365.424 186.742 364.368 190.038 357.521C193.293 350.589 172.329 311.873 172.329 311.873L199.295 300.081Z" fill="#F45B49" stroke="#1C2628" stroke-width="2.13" stroke-linecap="round" stroke-linejoin="round"/>
<path fill-rule="evenodd" clip-rule="evenodd" d="M316.667 205.235C316.667 205.235 332.771 188.92 341.816 176.874C349.086 167.153 349.931 163.434 357.919 167.238C365.231 170.703 394.057 157.981 396.128 164.364C398.495 171.676 370.937 180.636 353.143 193.189C339.872 202.53 335.307 217.112 335.307 217.112L316.667 205.235Z" fill="#F45B49" stroke="#1C2628" stroke-width="2.13" stroke-linecap="round" stroke-linejoin="round"/>
<path fill-rule="evenodd" clip-rule="evenodd" d="M11.5062 273.283C8.97023 275.185 5.84254 277.298 4.15189 280.13C3.98283 280.384 1.23553 282.962 2.20765 283.342C5.92707 284.822 11.4639 278.186 13.9576 276.495C14.972 275.819 15.9019 274.974 16.9163 274.297C17.3389 274.001 18.3533 272.903 18.1842 273.41C17.3812 275.819 13.6195 277.594 12.0979 279.623C9.22383 283.469 14.2958 281.483 15.8596 280.13C16.6204 279.496 17.4235 278.947 18.1842 278.313C19.1986 277.51 20.0862 276.58 21.0161 275.734C22.5377 274.34 24.186 273.114 25.9189 271.973" fill="#F45B49"/>
<path d="M11.5062 273.283C8.97023 275.185 5.84254 277.298 4.15189 280.13C3.98283 280.384 1.23553 282.962 2.20765 283.342C5.92707 284.822 11.4639 278.186 13.9576 276.495C14.972 275.819 15.9019 274.974 16.9163 274.297C17.3389 274.001 18.3533 272.903 18.1842 273.41C17.3812 275.819 13.6195 277.594 12.0979 279.623C9.22383 283.469 14.2958 281.483 15.8596 280.13C16.6204 279.496 17.4235 278.947 18.1842 278.313C19.1986 277.51 20.0862 276.58 21.0161 275.734C22.5377 274.34 24.186 273.114 25.9189 271.973" stroke="#1C2628" stroke-width="2.13" stroke-linecap="round" stroke-linejoin="round"/>
<path fill-rule="evenodd" clip-rule="evenodd" d="M72.9611 92.6804C73.0457 87.9466 65.4378 85.6643 59.0133 89.1724C52.5888 92.6805 52.2085 102.909 51.0673 105.064C44.7273 117.153 54.2372 126.747 68.819 128.564C73.0457 129.072 86.9089 123.45 86.3595 118.251C85.81 113.01 70.2984 115.589 69.1994 110.813" fill="#1C2628"/>
<path d="M72.9611 92.6804C73.0457 87.9466 65.4378 85.6643 59.0133 89.1724C52.5888 92.6805 52.2085 102.909 51.0673 105.064C44.7273 117.153 54.2372 126.747 68.819 128.564C73.0457 129.072 86.9089 123.45 86.3595 118.251C85.81 113.01 70.2984 115.589 69.1994 110.813" stroke="#1C2628" stroke-width="2.13" stroke-linecap="round" stroke-linejoin="round"/>
<path fill-rule="evenodd" clip-rule="evenodd" d="M48.8696 220.662C48.8696 220.662 44.8121 266.648 40.7968 271.508C38.5989 274.171 9.81571 275.693 9.81571 275.693C9.81571 275.693 12.6898 277.848 12.8166 279.581C12.9434 281.314 11.7599 281.906 11.7599 281.906C11.7599 281.906 4.02524 279.666 3.09539 277.299C2.50366 275.777 8.92811 270.79 11.8022 269.099C19.1988 264.788 26.5954 264.619 28.286 259.97C29.9766 255.32 33.7383 217.788 33.7383 217.788L48.8696 220.662Z" fill="#F45B49" stroke="#1C2628" stroke-width="2.13" stroke-linecap="round" stroke-linejoin="round"/>
<path fill-rule="evenodd" clip-rule="evenodd" d="M76.1736 345.179C76.1736 345.179 59.6898 373.666 61.5918 378.569L109.014 379.921L89.3183 365.551L97.6025 347.968L76.1736 345.179Z" fill="#F45B49" stroke="#1C2628" stroke-width="2.13" stroke-linecap="round" stroke-linejoin="round"/>
<path fill-rule="evenodd" clip-rule="evenodd" d="M211.129 116.814L210.96 128.48L213.919 131.903C213.919 131.903 215.356 143.527 210.749 146.232C205.719 149.232 194.392 143.357 190.546 142.385C187.08 141.498 192.617 134.228 192.617 134.228L192.997 120.83L192.659 115.631L211.129 116.814Z" fill="#F45B49" stroke="#1C2628" stroke-width="2.13" stroke-linecap="round" stroke-linejoin="round"/>
<path fill-rule="evenodd" clip-rule="evenodd" d="M213.496 109.882C214.299 106.966 214.003 101.133 213.285 98.4705C211.975 93.6522 210.622 95.7655 205.719 94.413C200.267 92.8914 197.604 90.7358 194.054 95.0892C192.659 96.7799 188.559 103.12 187.925 105.402C185.685 113.56 189.996 121.886 197.562 123.999C202.422 125.352 206.395 124.929 209.946 121.463C212.017 119.561 212.693 112.799 213.496 109.882Z" fill="#F45B49" stroke="#1C2628" stroke-width="2.13" stroke-linecap="round" stroke-linejoin="round"/>
<path fill-rule="evenodd" clip-rule="evenodd" d="M202.507 109.122C202.887 107.981 201.83 106.629 200.182 106.079C198.534 105.53 196.885 105.995 196.505 107.136C196.124 108.277 197.181 109.629 198.829 110.179C200.52 110.728 202.126 110.263 202.507 109.122Z" fill="#FAFCFF" stroke="#1C2628" stroke-width="2.13" stroke-linecap="round" stroke-linejoin="round"/>
<path fill-rule="evenodd" clip-rule="evenodd" d="M192.659 104.599C193.039 103.458 191.983 102.105 190.334 101.556C188.686 101.006 187.038 101.471 186.657 102.612C186.277 103.753 187.333 105.106 188.982 105.655C190.672 106.205 192.279 105.698 192.659 104.599Z" fill="#FAFCFF" stroke="#1C2628" stroke-width="2.13" stroke-linecap="round" stroke-linejoin="round"/>
<path fill-rule="evenodd" clip-rule="evenodd" d="M209.438 129.832L210.622 117.913C210.622 117.913 201.027 115.8 198.703 118.293C196.42 120.787 198.83 128.987 198.83 128.987L204.62 129.874" fill="#FB564C"/>
<path fill-rule="evenodd" clip-rule="evenodd" d="M219.286 108.657C217.004 112.715 213.158 103.585 213.158 103.585L197.646 99.908L196.547 92.0042L192.912 100.838L187.375 100.711C187.375 100.711 191.771 89.7218 192.87 88.6652C197.393 84.354 205.085 84.5654 210.072 88.7074C214.257 92.1733 224.02 100.288 219.286 108.657Z" fill="#1C2628" stroke="#1C2628" stroke-width="2.13" stroke-linecap="round" stroke-linejoin="round"/>
<path fill-rule="evenodd" clip-rule="evenodd" d="M211.974 110.728C213.073 109.418 215.229 110.728 215.652 111.996C216.497 114.617 214.51 119.055 210.411 116.392" fill="#F45B49"/>
<path d="M211.974 110.728C213.073 109.418 215.229 110.728 215.652 111.996C216.497 114.617 214.51 119.055 210.411 116.392" stroke="#1C2628" stroke-width="2.13" stroke-linecap="round" stroke-linejoin="round"/>
<path fill-rule="evenodd" clip-rule="evenodd" d="M197.35 109.586C198.153 110.093 199.125 109.966 199.548 109.332C199.971 108.698 199.633 107.768 198.83 107.261C198.027 106.754 197.054 106.881 196.632 107.515C196.209 108.149 196.547 109.079 197.35 109.586Z" fill="#1C2628" stroke="#1C2628" stroke-width="2.13" stroke-linecap="round" stroke-linejoin="round"/>
<path fill-rule="evenodd" clip-rule="evenodd" d="M189.573 104.726C190.081 103.923 189.954 102.655 187.84 102.275C187.08 102.148 187.164 102.529 186.615 103.289C186.108 104.092 186.784 104.938 187.418 105.36C188.094 105.783 189.066 105.529 189.573 104.726Z" fill="#1C2628" stroke="#1C2628" stroke-width="2.13" stroke-linecap="round" stroke-linejoin="round"/>
<path fill-rule="evenodd" clip-rule="evenodd" d="M150.52 230.722C145.194 233.173 145.236 223.241 148.829 220.874C155.465 216.52 161.974 225.481 150.52 230.722Z" fill="#FAF6EB"/>
<path d="M213.074 113.307C212.989 113.391 212.904 113.476 212.862 113.603" stroke="#1C2628" stroke-width="2.13" stroke-linecap="round" stroke-linejoin="round"/>
<path fill-rule="evenodd" clip-rule="evenodd" d="M357.962 197.712C357.962 197.712 357.497 198.43 356.651 199.698C350.776 208.616 326.008 244.247 302.593 249.741C297.31 250.967 290.928 250.967 284.08 250.206C256.396 247.036 221.062 230.933 220.512 230.679L195.279 266.521L213.623 319.311L204.62 320.664L173.512 325.398C173.512 325.398 148.533 282.244 149.463 271.593C150.942 254.348 182.135 198.134 182.135 198.134L210.115 190.4L236.658 183.045L263.793 196.275L265.314 196.993L300.226 208.701L333.743 176.367L357.962 197.712Z" fill="#FAF6EB" stroke="#1C2628" stroke-width="2.13" stroke-linecap="round" stroke-linejoin="round"/>
<path fill-rule="evenodd" clip-rule="evenodd" d="M244.139 174.127C244.139 174.127 230.656 176.663 224.485 177.847C219.963 178.692 214.849 182.454 204.029 185.37C203.31 185.581 202.549 185.75 201.788 185.962C196.843 187.188 181.839 189.766 181.839 189.766L180.655 171.718L178.289 165.294C177.19 162.293 177.19 159.038 178.246 156.037L183.276 142.09L186.615 132.749L192.532 131.016L191.264 141.117L208.847 141.075L213.158 129.917L218.737 129.325L219.033 133.974C219.456 140.399 222.795 146.316 228.036 150.036L235.517 155.319L236.827 158.151L244.139 174.127Z" fill="#FAF6EB" stroke="#1C2628" stroke-width="2.13" stroke-linecap="round" stroke-linejoin="round"/>
<path fill-rule="evenodd" clip-rule="evenodd" d="M163.537 280.977C159.48 296.446 138.643 338.839 138.643 338.839L112.987 336.388L106.647 345.686L68.3541 344.672L73.2992 334.021L97.0105 282.836L63.0708 238.626L64.5079 216.479L64.5924 215.042L87.9233 212.759L115.143 208.49C115.143 208.448 167.595 265.507 163.537 280.977Z" fill="#47584E" stroke="#1C2628" stroke-width="2.13" stroke-linecap="round" stroke-linejoin="round"/>
<path fill-rule="evenodd" clip-rule="evenodd" d="M108.169 285.794C107.493 291.754 105.295 291.12 100.815 303.757C97.0953 314.155 98.4478 315.042 95.5314 319.353C90.6708 326.539 83.1897 329.835 79.6393 331.441C76.9766 332.625 74.9478 333.512 73.3417 334.02L97.053 282.835L63.1133 238.625L64.5503 216.478C68.8615 217.027 73.9334 218.084 79.9775 219.69C87.3318 229.58 88.473 237.188 87.9235 242.513C87.5008 246.656 86.0638 249.445 87.6276 253.122C89.8255 258.363 94.9397 257.729 100.307 262.548C106.901 268.592 108.972 278.693 108.169 285.794Z" fill="#1C2628" stroke="#1C2628" stroke-width="2.13" stroke-linecap="round" stroke-linejoin="round"/>
<path fill-rule="evenodd" clip-rule="evenodd" d="M109.563 341.459C111.677 350.335 103.646 350.757 103.646 350.757L72.0734 350.419C69.2838 350.419 67.0015 348.137 67.0015 345.347C67.0015 342.558 69.2838 340.275 72.0734 340.275" fill="#47584E"/>
<path d="M109.563 341.459C111.677 350.335 103.646 350.757 103.646 350.757L72.0734 350.419C69.2838 350.419 67.0015 348.137 67.0015 345.347C67.0015 342.558 69.2838 340.275 72.0734 340.275" stroke="#1C2628" stroke-width="2.13" stroke-linecap="round" stroke-linejoin="round"/>
<path fill-rule="evenodd" clip-rule="evenodd" d="M136.656 331.399C139.192 331.399 141.263 333.47 141.263 336.006C141.263 338.542 139.192 340.613 136.656 340.613H115.1C112.564 340.613 112.945 336.345 112.945 336.345" fill="#47584E"/>
<path d="M136.656 331.399C139.192 331.399 141.263 333.47 141.263 336.006C141.263 338.542 139.192 340.613 136.656 340.613H115.1C112.564 340.613 112.945 336.345 112.945 336.345" stroke="#1C2628" stroke-width="2.13" stroke-linecap="round" stroke-linejoin="round"/>
<path fill-rule="evenodd" clip-rule="evenodd" d="M58.5484 227.805L58.5907 228.144L58.0835 239.894L108.887 229.073L109.902 217.746C106.267 218.634 99.8002 217.746 89.3604 219.648C75.9198 222.1 72.2004 227.552 58.5484 227.805Z" fill="#F3A140" stroke="#1C2628" stroke-width="2.13" stroke-linecap="round" stroke-linejoin="round"/>
<path fill-rule="evenodd" clip-rule="evenodd" d="M110.409 217.661L114.002 226.41L130.612 219.859L129.556 211.955C123.343 214.237 117.003 216.013 110.409 217.661Z" fill="#F3A140" stroke="#1C2628" stroke-width="2.13" stroke-linecap="round" stroke-linejoin="round"/>
<path fill-rule="evenodd" clip-rule="evenodd" d="M127.696 197.712L125.751 182.792L124.991 177.002L123.258 163.772L121.229 148.514C121.229 148.514 129.513 133.468 133.021 113.095C134.162 106.544 134.627 98.3444 134.754 90.2294C134.796 88.0738 134.796 85.9182 134.754 83.8049C134.67 69.2231 133.655 56.501 133.655 56.501L109.141 57.7267C109.141 57.7267 109.141 78.0144 105.844 95.259C102.547 112.461 97.3486 126.578 97.3486 126.578L89.4025 133.468L69.5375 137.948C69.5375 137.948 43.1634 143.189 39.1059 155.573C37.1616 161.448 35.5555 168.887 34.2453 176.199C33.9917 177.593 33.7803 178.946 33.569 180.298C32.8082 184.863 32.2165 189.259 31.7516 192.978C31.5402 194.5 31.3712 195.895 31.2444 197.163C30.7372 201.347 30.4836 204.01 30.4836 204.01L22.6221 251.813L49.2497 253.419L54.3217 222.142L56.9422 202.742L58.5905 227.932C72.2425 227.679 79.2587 220.536 92.8684 219.86C104.027 219.31 106.224 218.803 109.902 217.915C109.902 217.915 123.385 214.365 129.598 212.04L127.696 197.712Z" fill="#FAF6EB" stroke="#1C2628" stroke-width="2.13" stroke-linecap="round" stroke-linejoin="round"/>
<path d="M110.324 127.295L104.83 123.745L105.379 130.254L100.307 134.396L106.689 135.918L109.056 142.004L112.438 136.425L118.989 136.045L114.72 131.099L116.368 124.76L110.324 127.295Z" fill="#49574E"/>
<path d="M134.754 90.229L133.402 89.9754L132.895 90.3981L130.105 92.7227L129.894 88.4538L126.259 86.1715L130.274 84.6499L131.288 80.5078L133.529 83.3396L133.951 83.8468L134.712 83.8046C134.797 85.9179 134.797 88.0734 134.754 90.229Z" fill="#49574E"/>
<path d="M127.696 197.712C127.188 197.796 126.597 197.712 126.174 197.374L117.89 191.625L111.296 194.119L108.465 195.218C107.746 195.472 106.901 195.345 106.351 194.795C105.76 194.246 105.548 193.443 105.802 192.724L108.718 183.045L102.42 175.184C102.125 174.803 101.956 174.339 101.956 173.916C101.956 173.62 101.998 173.324 102.125 173.071C102.463 172.352 103.139 171.887 103.942 171.887L114.044 171.676L119.581 163.265C120.003 162.631 120.764 162.25 121.525 162.335C122.286 162.419 122.962 162.969 123.215 163.687L123.258 163.814L124.991 177.044L124.399 176.874C123.765 176.705 123.215 176.198 123.004 175.564L121.694 171.887L120.679 168.971L116.833 174.846C116.453 175.395 115.819 175.776 115.143 175.776L108.126 175.902L112.522 181.397C112.945 181.904 113.072 182.623 112.902 183.257L110.874 189.977L113.79 188.878L117.467 187.483C118.101 187.23 118.82 187.314 119.369 187.737L125.117 191.752L124.779 184.736C124.779 184.398 124.822 184.06 124.948 183.764C125.075 183.468 125.286 183.214 125.582 183.003L125.751 182.876L127.696 197.712Z" fill="#49574E"/>
<path d="M79.005 202.403L72.9609 204.939L67.4663 201.389L68.0158 207.898L62.9438 212.082L68.1848 213.308L69.326 213.561L71.6929 219.69L75.1165 214.069L81.6255 213.688L77.3566 208.743L77.6525 207.602L79.005 202.403Z" fill="#49574E"/>
<path d="M66.3677 155.572L62.775 153.247L63.1132 157.516L59.8164 160.221L63.9585 161.193L65.5223 165.208L67.7624 161.531L72.0313 161.278L69.2418 158.023L70.2984 153.881L66.3677 155.572Z" fill="#49574E"/>
<path d="M44.0933 179.494L37.9225 187.482L41.0079 197.077C41.2615 197.838 41.0502 198.641 40.5007 199.19C39.9512 199.74 39.1059 199.909 38.3874 199.655L31.2021 197.077C31.3712 195.809 31.5403 194.414 31.7093 192.892L35.8514 194.372L33.6958 187.694C33.4845 187.06 33.6113 186.341 34.034 185.834L38.3029 180.297H33.5268C33.7381 178.945 33.9917 177.592 34.203 176.197H42.4449C43.2057 176.197 43.9243 176.662 44.2624 177.338C44.6428 178.015 44.5582 178.86 44.0933 179.494Z" fill="#49574E"/>
<path fill-rule="evenodd" clip-rule="evenodd" d="M71.6507 118.801L70.8477 136.257C70.8477 136.257 82.978 137.905 86.5284 136.384C90.0787 134.862 95.6156 132.031 95.6156 132.031L88.5994 115.42L71.6507 118.801Z" fill="#F45B49" stroke="#1C2628" stroke-width="2.13" stroke-linecap="round" stroke-linejoin="round"/>
<path d="M112.438 228.397C112.438 228.397 147.265 272.988 145.448 281.484C143.63 289.979 109.479 341.544 109.479 341.544L80.3154 340.614" stroke="#1C2628" stroke-width="2.13" stroke-linecap="round" stroke-linejoin="round"/>
<path fill-rule="evenodd" clip-rule="evenodd" d="M86.2329 142.174L80.7383 145.766L85.937 147.668L86.2329 142.174Z" fill="#1C2628" stroke="#1C2628" stroke-width="2.13" stroke-linecap="round" stroke-linejoin="round"/>
<path fill-rule="evenodd" clip-rule="evenodd" d="M86.5287 136.341L70.6366 131.354L68.6924 137.017C67.9738 139.13 69.0728 141.455 71.1861 142.216L80.7382 145.724L86.2328 142.174L86.5287 136.341Z" fill="#FAF6EB" stroke="#1C2628" stroke-width="2.13" stroke-linecap="round" stroke-linejoin="round"/>
<path fill-rule="evenodd" clip-rule="evenodd" d="M90.6286 146.57L94.8975 142.343L88.938 141.709L90.6286 146.57Z" fill="#1C2628" stroke="#1C2628" stroke-width="2.13" stroke-linecap="round" stroke-linejoin="round"/>
<path fill-rule="evenodd" clip-rule="evenodd" d="M95.024 128.48L86.9512 136.046L88.8954 141.667L94.8972 142.344L98.2785 139.047C99.8423 137.525 100.054 135.032 98.7012 133.299L95.024 128.48Z" fill="#FAF6EB" stroke="#1C2628" stroke-width="2.13" stroke-linecap="round" stroke-linejoin="round"/>
<path d="M52.4619 165.886C52.4619 165.886 54.7866 170.281 56.8153 183.764C57.5339 188.456 56.9421 213.985 56.9421 213.985" stroke="#1C2628" stroke-width="2.13" stroke-linecap="round" stroke-linejoin="round"/>
<path fill-rule="evenodd" clip-rule="evenodd" d="M71.2706 123.407C62.4793 120.66 57.4073 111.826 59.9433 103.669C61.2113 99.6112 60.1969 94.5393 63.874 92.7641C67.5935 90.9889 76.0467 92.5105 80.4424 93.863C89.2337 96.6103 94.3056 105.444 91.7697 113.601C90.3749 118.039 88.7688 122.266 84.6267 123.956C81.1186 125.351 75.2859 124.675 71.2706 123.407Z" fill="#F45B49" stroke="#1C2628" stroke-width="2.13" stroke-linecap="round" stroke-linejoin="round"/>
<path fill-rule="evenodd" clip-rule="evenodd" d="M76.4272 96.5684C79.4704 95.8076 85.8103 92.849 86.867 94.3283C88.2618 96.2725 84.2042 99.4002 83.5702 99.5693" fill="#F45B49"/>
<path d="M76.4272 96.5684C79.4704 95.8076 85.8103 92.849 86.867 94.3283C88.2618 96.2725 84.2042 99.4002 83.5702 99.5693" stroke="#1C2628" stroke-width="2.13" stroke-linecap="round" stroke-linejoin="round"/>
<path fill-rule="evenodd" clip-rule="evenodd" d="M83.1895 113.053C80.7803 114.363 77.9907 111.151 77.9907 111.151L84.2461 106.459C84.2884 106.417 87.7119 110.601 83.1895 113.053Z" fill="#1C2628" stroke="#1C2628" stroke-width="2.13" stroke-linecap="round" stroke-linejoin="round"/>
<path fill-rule="evenodd" clip-rule="evenodd" d="M70.1716 107.896C69.0727 107.178 69.0304 105.318 70.0871 103.754C71.1015 102.148 72.8344 101.429 73.9333 102.148C75.0322 102.866 75.0745 104.726 74.0178 106.29C72.9612 107.896 71.2705 108.615 70.1716 107.896Z" fill="#FAFCFF" stroke="#1C2628" stroke-width="2.13" stroke-linecap="round" stroke-linejoin="round"/>
<path fill-rule="evenodd" clip-rule="evenodd" d="M75.7505 96.4421C74.7361 95.8081 74.567 94.2865 75.4123 93.0185C76.2577 91.7928 77.737 91.2856 78.7936 91.9619C79.808 92.5958 79.9771 94.1174 79.1318 95.3854C78.2864 96.6111 76.7648 97.076 75.7505 96.4421Z" fill="#FAFCFF" stroke="#1C2628" stroke-width="2.13" stroke-linecap="round" stroke-linejoin="round"/>
<path fill-rule="evenodd" clip-rule="evenodd" d="M71.9467 126.493L71.355 120.153C71.355 120.153 78.5402 114.785 81.5834 116.856C84.6265 118.969 84.0348 128.183 84.0348 128.183L78.1176 130.508" fill="#FB564C"/>
<path fill-rule="evenodd" clip-rule="evenodd" d="M64.0006 90.0178C65.3954 89.257 62.0563 88.2848 63.747 88.4962C69.1571 89.0879 69.2839 93.6526 67.5932 97.2875C65.9871 100.753 63.4089 103.754 63.4089 103.754C63.4089 103.754 70.6364 114.152 66.1984 118.674C63.2821 121.633 58.0833 121.083 56.3927 117.575C54.9979 114.701 54.9134 111.531 55.3783 108.446C55.8432 105.276 57.6184 102.275 57.9565 99.1472" fill="#1C2628"/>
<path d="M64.0006 90.0178C65.3954 89.257 62.0563 88.2848 63.747 88.4962C69.1571 89.0879 69.2839 93.6526 67.5932 97.2875C65.9871 100.753 63.4089 103.754 63.4089 103.754C63.4089 103.754 70.6364 114.152 66.1984 118.674C63.2821 121.633 58.0833 121.083 56.3927 117.575C54.9979 114.701 54.9134 111.531 55.3783 108.446C55.8432 105.276 57.6184 102.275 57.9565 99.1472" stroke="#1C2628" stroke-width="2.13" stroke-linecap="round" stroke-linejoin="round"/>
<path fill-rule="evenodd" clip-rule="evenodd" d="M58.8019 97.0338C45.9952 94.5401 44.0933 104.473 49.8415 107.896C42.8676 109.587 42.2336 122.943 54.2371 122.774C52.5888 124.253 60.1121 131.438 62.944 120.872" fill="#1C2628"/>
<path d="M58.8019 97.0338C45.9952 94.5401 44.0933 104.473 49.8415 107.896C42.8676 109.587 42.2336 122.943 54.2371 122.774C52.5888 124.253 60.1121 131.438 62.944 120.872" stroke="#1C2628" stroke-width="2.13" stroke-linecap="round" stroke-linejoin="round"/>
<path fill-rule="evenodd" clip-rule="evenodd" d="M66.9169 117.787C67.2128 117.364 64.3387 118.421 65.9871 122.014C67.1282 124.55 73.3414 125.31 73.2146 120.703" fill="#F45B49"/>
<path d="M66.9169 117.787C67.2128 117.364 64.3387 118.421 65.9871 122.014C67.1282 124.55 73.3414 125.31 73.2146 120.703" stroke="#1C2628" stroke-width="2.13" stroke-linecap="round" stroke-linejoin="round"/>
<path d="M68.5234 120.913L68.9038 120.956H69.5378L70.2563 120.702" stroke="#1C2628" stroke-width="2.13" stroke-linecap="round" stroke-linejoin="round"/>
<path fill-rule="evenodd" clip-rule="evenodd" d="M73.5949 102.57C72.8342 102.147 71.862 102.443 71.4816 103.246C71.1012 104.007 71.3548 104.979 72.1579 105.36C72.9187 105.782 73.8908 105.487 74.2712 104.683C74.6516 103.923 74.3557 102.951 73.5949 102.57Z" fill="#1C2628" stroke="#1C2628" stroke-width="2.13" stroke-linecap="round" stroke-linejoin="round"/>
<path fill-rule="evenodd" clip-rule="evenodd" d="M78.4979 92.2998C77.7794 91.9194 76.9341 92.0885 76.6382 92.7225C76.3001 93.3142 76.6382 94.1172 77.3567 94.4976C78.0752 94.878 78.9206 94.709 79.2164 94.075C79.5546 93.4833 79.2164 92.6802 78.4979 92.2998Z" fill="#1C2628" stroke="#1C2628" stroke-width="2.13" stroke-linecap="round" stroke-linejoin="round"/>
<path d="M68.6921 92.5539C68.988 90.8632 67.3396 89.2994 66.3252 88.1582" stroke="#FAF6EB" stroke-width="2.13" stroke-linecap="round" stroke-linejoin="round"/>
<path d="M55.167 115.969C54.0681 113.728 52.462 105.571 55.2516 104.219C57.7875 102.951 58.8865 109.29 57.7453 108.572C53.3919 105.782 56.7732 96.188 60.5771 94.1592" stroke="#FAF6EB" stroke-width="2.13" stroke-linecap="round" stroke-linejoin="round"/>
<path fill-rule="evenodd" clip-rule="evenodd" d="M80.9917 124.379L90.3325 119.181L92.1922 125.732C92.1922 125.732 88.8955 125.986 85.8523 125.436C82.8514 124.887 80.9917 124.379 80.9917 124.379Z" fill="#1C2628" stroke="#1C2628" stroke-width="2.13" stroke-linecap="round" stroke-linejoin="round"/>
<path fill-rule="evenodd" clip-rule="evenodd" d="M68.5654 119.476C68.5654 118.25 69.5798 117.278 70.8478 117.278C72.1158 117.278 73.1302 118.25 73.1302 119.476C73.1302 120.702 72.1158 121.674 70.8478 121.674C69.5798 121.674 68.5654 120.66 68.5654 119.476Z" fill="#1C2628" stroke="#1C2628" stroke-width="2.13" stroke-linecap="round" stroke-linejoin="round"/>
<path d="M72.2849 119.224C75.5394 122.478 80.231 130.509 83.4009 139.004C86.1905 146.528 74.9054 163.814 74.356 170.535C73.722 177.762 85.3452 199.952 78.6671 212.801C73.0035 223.705 61.8452 222.607 56.0125 234.906C50.1798 247.205 44.5161 272.481 17.1699 276.242" stroke="#1C2628" stroke-width="2.13" stroke-linecap="round" stroke-linejoin="round"/>
<path d="M186.995 113.011C190.841 122.521 153.732 126.198 136.741 146.95C119.75 167.703 85.8523 147.373 80.6113 155.446" stroke="#1C2628" stroke-width="2.13" stroke-linecap="round" stroke-linejoin="round"/>
<path d="M116.875 330.977C116.875 330.977 131.204 331.568 134.247 331.188" stroke="#1C2628" stroke-width="2.13" stroke-linecap="round" stroke-linejoin="round"/>
<path d="M24.313 241.077L47.348 244.247" stroke="#1C2628" stroke-width="2.13" stroke-linecap="round" stroke-linejoin="round"/>
<path d="M109.563 67.6588L134.078 66.8135" stroke="#1C2628" stroke-width="2.13" stroke-linecap="round" stroke-linejoin="round"/>
<path fill-rule="evenodd" clip-rule="evenodd" d="M201.577 113.391C200.52 115.631 197.435 114.87 195.279 115.631C195.279 115.631 196.97 119.35 200.647 117.406C203.056 116.096 201.577 113.391 201.577 113.391Z" fill="#1C2628" stroke="#1C2628" stroke-width="2.13" stroke-linecap="round" stroke-linejoin="round"/>
<path d="M192.701 213.942C192.701 213.942 200.943 216.013 203.606 218.845C206.649 222.142 216.877 228.524 220.512 230.68" stroke="#1C2628" stroke-width="2.13" stroke-linecap="round" stroke-linejoin="round"/>
<path d="M194.729 108.023C194.729 104.811 197.519 102.232 200.985 102.232C204.451 102.232 207.24 104.811 207.24 108.023C207.24 111.235 204.451 113.813 200.985 113.813C197.519 113.813 194.729 111.235 194.729 108.023Z" stroke="#FAF6EB" stroke-width="2.13" stroke-linecap="round" stroke-linejoin="round"/>
<path d="M182.304 104.261C182.304 101.049 185.093 98.4707 188.559 98.4707C192.025 98.4707 194.814 101.049 194.814 104.261C194.814 107.473 192.025 110.052 188.559 110.052C185.093 110.052 182.304 107.431 182.304 104.261Z" stroke="#FAF6EB" stroke-width="2.13" stroke-linecap="round" stroke-linejoin="round"/>
<path fill-rule="evenodd" clip-rule="evenodd" d="M193.589 108.403C190.757 107.896 188.263 105.91 187.375 107.347C186.234 109.207 189.954 112.25 190.545 112.419" fill="#F45B49"/>
<path d="M193.589 108.403C190.757 107.896 188.263 105.91 187.375 107.347C186.234 109.207 189.954 112.25 190.545 112.419" stroke="#1C2628" stroke-width="2.13" stroke-linecap="round" stroke-linejoin="round"/>
<path d="M197.942 89.9756C200.478 89.9756 200.436 97.7103 200.901 100.542" stroke="#FAF6EB" stroke-width="2.13" stroke-linecap="round" stroke-linejoin="round"/>
<path d="M208.086 86.5938C217.384 95.4696 216.539 107.938 217.723 114.363" stroke="#FAF6EB" stroke-width="2.13" stroke-linecap="round" stroke-linejoin="round"/>
<path d="M221.062 104.219C221.949 109.122 223.09 113.982 224.147 118.885" stroke="#FAF6EB" stroke-width="2.13" stroke-linecap="round" stroke-linejoin="round"/>
<path d="M194.349 151.684C193.208 159.207 189.024 167.407 185.093 171.633C184.374 172.394 183.402 173.324 182.346 174.085" stroke="#1C2628" stroke-width="2.13" stroke-linecap="round" stroke-linejoin="round"/>
<path d="M180.655 160.56C185.431 154.093 199.168 140.145 208.255 147.034C216.581 153.332 201.07 176.409 196.125 182.961" stroke="#1C2628" stroke-width="2.13" stroke-linecap="round" stroke-linejoin="round"/>
<path d="M189.869 182.665C191.391 179.199 194.011 175.395 194.645 174.507C199.928 167.026 214.975 147.838 226.133 151.388C226.345 151.43 226.514 151.515 226.683 151.599" stroke="#1C2628" stroke-width="2.13" stroke-linecap="round" stroke-linejoin="round"/>
<path d="M230.402 151.684C230.487 153.121 226.683 169.562 219.92 178.649" stroke="#1C2628" stroke-width="2.13" stroke-linecap="round" stroke-linejoin="round"/>
<path d="M213.623 177.847C214.087 176.663 214.595 175.48 215.144 174.339C218.187 167.787 222.71 160.56 228.543 155.403" stroke="#1C2628" stroke-width="2.13" stroke-linecap="round" stroke-linejoin="round"/>
<path fill-rule="evenodd" clip-rule="evenodd" d="M11.1681 273.748H23.6366C25.116 273.748 26.2994 274.931 26.2994 276.411C26.2994 277.89 25.116 279.074 23.6366 279.074H11.1681C9.68882 279.074 8.50537 277.89 8.50537 276.411C8.50537 274.931 9.73109 273.748 11.1681 273.748Z" fill="#1C2628" stroke="#1C2628" stroke-width="2.13" stroke-linecap="round" stroke-linejoin="round"/>
<path d="M245.703 204.136C257.664 207.306 295.196 224.382 303.607 221.719C312.018 219.014 321.274 206.334 329.474 201.516" stroke="#1C2628" stroke-width="2.13" stroke-linecap="round" stroke-linejoin="round"/>
<path d="M182.473 215.717C185.305 227.72 163.369 240.527 160.663 254.094C157.789 268.507 171.526 251.981 176.809 251.981C182.008 251.981 174.358 266.225 173.428 269.395C170.681 278.778 171.357 282.328 176.091 290.95" stroke="#1C2628" stroke-width="2.13" stroke-linecap="round" stroke-linejoin="round"/>
<path d="M80.9495 156.037C79.3011 156.587 77.7795 155.023 79.3434 153.966C81.5412 152.487 81.4567 155.868 80.9495 156.037Z" stroke="#1C2628" stroke-width="2.13" stroke-linecap="round" stroke-linejoin="round"/>
<path fill-rule="evenodd" clip-rule="evenodd" d="M66.5788 310.14C64.5923 310.943 64.8459 313.986 63.8315 315.846C62.0141 319.27 58.506 322.313 55.2515 324.341C51.3207 326.751 46.0375 332.668 44.6004 337.064C42.7407 342.812 45.953 349.109 52.8423 347.503C59.4781 345.939 59.14 337.359 61.4646 332.541C63.747 327.807 77.8216 316.184 72.1157 310.69C70.3828 308.999 68.3963 309.422 66.5788 310.14Z" fill="#F3A13B"/>
<path fill-rule="evenodd" clip-rule="evenodd" d="M151.999 163.138C146.673 166.182 135.008 159.969 141.601 153.755C144.94 150.585 146.716 154.728 149.801 153.755C153.351 152.656 153.267 147.458 156.986 146.317C159.395 145.556 159.945 149.106 159.733 150.543C158.973 155.066 156.056 160.814 151.999 163.138Z" fill="#FAF6EB"/>
<path d="M197.097 200.205L244.139 186.638" stroke="#1C2628" stroke-width="2.13" stroke-linecap="round" stroke-linejoin="round"/>
<path fill-rule="evenodd" clip-rule="evenodd" d="M187.756 347.545L190.841 364.874L216.116 362.549L210.115 343.022L187.756 347.545Z" fill="#F3A140" stroke="#1C2628" stroke-width="2.13" stroke-linecap="round" stroke-linejoin="round"/>
<path fill-rule="evenodd" clip-rule="evenodd" d="M205.846 343.867C208.044 348.516 209.735 357.181 211.172 362.295L205.846 343.867Z" fill="#FAF6EB"/>
<path d="M205.846 343.867C208.044 348.516 209.735 357.181 211.172 362.295" stroke="#1C2628" stroke-width="2.13" stroke-linecap="round" stroke-linejoin="round"/>
<path fill-rule="evenodd" clip-rule="evenodd" d="M201.408 345.051C203.141 351.179 205.931 357.984 206.649 364.282L201.408 345.051Z" fill="#FAF6EB"/>
<path d="M201.408 345.051C203.141 351.179 205.931 357.984 206.649 364.282" stroke="#1C2628" stroke-width="2.13" stroke-linecap="round" stroke-linejoin="round"/>
<path fill-rule="evenodd" clip-rule="evenodd" d="M196.928 345.812C198.745 352.236 200.52 359.168 201.957 365.677L196.928 345.812Z" fill="#FAF6EB"/>
<path d="M196.928 345.812C198.745 352.236 200.52 359.168 201.957 365.677" stroke="#1C2628" stroke-width="2.13" stroke-linecap="round" stroke-linejoin="round"/>
<path fill-rule="evenodd" clip-rule="evenodd" d="M192.363 346.614C194.012 352.405 195.111 359.125 196.421 365.085L192.363 346.614Z" fill="#FAF6EB"/>
<path d="M192.363 346.614C194.012 352.405 195.111 359.125 196.421 365.085" stroke="#1C2628" stroke-width="2.13" stroke-linecap="round" stroke-linejoin="round"/>
<path fill-rule="evenodd" clip-rule="evenodd" d="M182.896 359.675L187.418 351.899C187.418 351.899 193.673 351.856 193.462 353.462C193.251 355.069 190.799 361.831 190.799 361.831L182.896 359.675Z" fill="#FAF6EB" stroke="#1C2628" stroke-width="2.13" stroke-linecap="round" stroke-linejoin="round"/>
<path fill-rule="evenodd" clip-rule="evenodd" d="M184.797 356.886L196.97 360.647C196.97 360.647 207.494 362.972 209.692 362.38C211.932 361.746 211.383 360.013 212.609 359.041C213.834 358.069 216.159 358.281 216.159 358.281C216.159 358.281 216.666 360.394 217.046 365.17C217.427 369.946 215.652 375.567 215.652 375.567L178.162 377.004L159.057 377.089C159.057 377.089 155.507 369.946 160.79 367.664C166.158 365.339 171.145 364.578 178.669 361.493C182.431 359.929 184.797 356.886 184.797 356.886Z" fill="#47584E" stroke="#1C2628" stroke-width="2.13" stroke-linecap="round" stroke-linejoin="round"/>
<path fill-rule="evenodd" clip-rule="evenodd" d="M215.863 373.961C214.891 373.708 198.28 373.454 198.28 373.454C198.28 373.454 195.279 374.891 186.065 375.948C176.851 377.004 159.057 376.793 159.057 376.793C159.057 376.793 162.819 379.752 171.061 379.118C180.613 378.399 215.398 378.146 215.398 378.146C215.398 378.146 217.3 377.343 217.427 376.413C217.469 375.483 216.919 374.257 215.863 373.961Z" fill="#FAF6EB" stroke="#1C2628" stroke-width="2.13" stroke-linecap="round" stroke-linejoin="round"/>
<path d="M183.783 361.619C183.783 361.112 184.206 360.689 184.755 360.689C185.305 360.689 185.727 361.112 185.727 361.619C185.727 362.127 185.305 362.549 184.755 362.549C184.248 362.549 183.783 362.127 183.783 361.619Z" fill="#FAF6EB" stroke="#1C2628" stroke-width="2.13" stroke-linecap="round" stroke-linejoin="round"/>
<path d="M177.908 364.282C177.908 363.775 178.331 363.353 178.88 363.353C179.43 363.353 179.852 363.775 179.852 364.282C179.852 364.79 179.43 365.212 178.88 365.212C178.373 365.212 177.908 364.79 177.908 364.282Z" fill="#FAF6EB" stroke="#1C2628" stroke-width="2.13" stroke-linecap="round" stroke-linejoin="round"/>
<path d="M171.949 366.608C171.949 366.1 172.371 365.678 172.921 365.678C173.47 365.678 173.893 366.1 173.893 366.608C173.893 367.115 173.47 367.537 172.921 367.537C172.414 367.537 171.949 367.115 171.949 366.608Z" fill="#FAF6EB" stroke="#1C2628" stroke-width="2.13" stroke-linecap="round" stroke-linejoin="round"/>
<path fill-rule="evenodd" clip-rule="evenodd" d="M182.558 358.238L184.417 361.07L182.558 358.238Z" fill="#FAF6EB"/>
<path d="M182.558 358.238L184.417 361.07" stroke="#1C2628" stroke-width="2.13" stroke-linecap="round" stroke-linejoin="round"/>
<path fill-rule="evenodd" clip-rule="evenodd" d="M176.894 360.901L178.753 363.733L176.894 360.901Z" fill="#FAF6EB"/>
<path d="M176.894 360.901L178.753 363.733" stroke="#1C2628" stroke-width="2.13" stroke-linecap="round" stroke-linejoin="round"/>
<path fill-rule="evenodd" clip-rule="evenodd" d="M170.934 363.142L172.794 365.973L170.934 363.142Z" fill="#FAF6EB"/>
<path d="M170.934 363.142L172.794 365.973" stroke="#1C2628" stroke-width="2.13" stroke-linecap="round" stroke-linejoin="round"/>
<path fill-rule="evenodd" clip-rule="evenodd" d="M196.801 360.521C196.801 360.521 194.772 363.86 197.055 366.311C199.337 368.72 204.747 373.243 204.747 373.243C204.747 373.243 204.663 369.819 207.199 368.467C209.735 367.156 216.624 365.466 216.624 365.466L217.004 361.958L211.087 361.873C211.087 361.873 207.03 362.338 203.648 361.873C200.225 361.408 196.801 360.521 196.801 360.521Z" fill="#FAF6EB" stroke="#1C2628" stroke-width="2.13" stroke-linecap="round" stroke-linejoin="round"/>
<path fill-rule="evenodd" clip-rule="evenodd" d="M158.254 369.735C158.254 369.735 159.945 371.552 163.876 371.425C167.807 371.298 170.216 371.214 170.216 371.214L170.427 369.016C170.427 369.016 167.722 369.439 167.511 368.128C167.299 366.818 166.665 365.339 166.665 365.339C166.665 365.339 164.425 365.931 160.833 367.452C158.719 368.34 158.254 369.735 158.254 369.735Z" fill="#FAF6EB" stroke="#1C2628" stroke-width="2.13" stroke-linecap="round" stroke-linejoin="round"/>
<path d="M170.173 369.016L182.895 368.086L189.151 375.313" stroke="#1C2628" stroke-width="2.13" stroke-linecap="round" stroke-linejoin="round"/>
<path fill-rule="evenodd" clip-rule="evenodd" d="M357.074 190.78L378.883 177.593L354.369 160.433L341.985 176.621L357.074 190.78Z" fill="#F3A140" stroke="#1C2628" stroke-width="2.13" stroke-linecap="round" stroke-linejoin="round"/>
<path fill-rule="evenodd" clip-rule="evenodd" d="M345.155 179.622C347.648 175.142 353.777 168.76 357.074 164.575L345.155 179.622Z" fill="#FAF6EB"/>
<path d="M345.155 179.622C347.648 175.142 353.777 168.76 357.074 164.575" stroke="#1C2628" stroke-width="2.13" stroke-linecap="round" stroke-linejoin="round"/>
<path fill-rule="evenodd" clip-rule="evenodd" d="M348.705 182.581C352.678 177.594 361.554 169.648 366.246 165.421L348.705 182.581Z" fill="#FAF6EB"/>
<path d="M348.705 182.581C352.678 177.594 361.554 169.648 366.246 165.421" stroke="#1C2628" stroke-width="2.13" stroke-linecap="round" stroke-linejoin="round"/>
<path fill-rule="evenodd" clip-rule="evenodd" d="M351.917 185.751C356.06 180.552 364.766 174.297 369.247 169.352L351.917 185.751Z" fill="#FAF6EB"/>
<path d="M351.917 185.751C356.06 180.552 364.766 174.297 369.247 169.352" stroke="#1C2628" stroke-width="2.13" stroke-linecap="round" stroke-linejoin="round"/>
<path fill-rule="evenodd" clip-rule="evenodd" d="M355.214 189.004C358.976 184.271 369.585 178.396 373.685 173.873L355.214 189.004Z" fill="#FAF6EB"/>
<path d="M355.214 189.004C358.976 184.271 369.585 178.396 373.685 173.873" stroke="#1C2628" stroke-width="2.13" stroke-linecap="round" stroke-linejoin="round"/>
<path fill-rule="evenodd" clip-rule="evenodd" d="M378.925 177.593L373.727 184.905C373.727 184.905 367.471 184.398 367.852 182.834C368.19 181.228 371.233 174.719 371.233 174.719L378.925 177.593Z" fill="#FAF6EB" stroke="#1C2628" stroke-width="2.13" stroke-linecap="round" stroke-linejoin="round"/>
<path fill-rule="evenodd" clip-rule="evenodd" d="M376.812 180.171L365.02 175.353C365.02 175.353 354.749 172.098 352.509 172.521C350.227 172.944 350.607 174.719 349.297 175.564C347.987 176.41 342.746 174 342.746 174C342.746 174 345.366 173.874 345.408 169.098C345.451 164.321 347.733 158.869 347.733 158.869L385.223 160.771L404.243 162.377C404.243 162.377 407.117 169.774 401.665 171.634C396.128 173.451 391.056 173.789 383.321 176.198C379.433 177.382 376.812 180.171 376.812 180.171Z" fill="#47584E" stroke="#1C2628" stroke-width="2.13" stroke-linecap="round" stroke-linejoin="round"/>
<path fill-rule="evenodd" clip-rule="evenodd" d="M347.395 160.433C348.325 160.771 364.851 162.504 364.851 162.504C364.851 162.504 367.978 161.321 377.235 161.109C386.533 160.898 404.2 162.673 404.2 162.673C404.2 162.673 400.735 159.376 392.45 159.292C382.856 159.165 348.24 156.291 348.24 156.291C348.24 156.291 346.254 156.925 346.084 157.813C345.915 158.742 346.338 160.053 347.395 160.433Z" fill="#FAF6EB" stroke="#1C2628" stroke-width="2.13" stroke-linecap="round" stroke-linejoin="round"/>
<path d="M378.207 175.563C378.165 176.071 377.7 176.451 377.151 176.409C376.601 176.367 376.221 175.902 376.263 175.394C376.305 174.887 376.77 174.507 377.32 174.549C377.869 174.591 378.249 175.056 378.207 175.563Z" fill="#FAF6EB" stroke="#1C2628" stroke-width="2.13" stroke-linecap="round" stroke-linejoin="round"/>
<path d="M384.293 173.45C384.251 173.957 383.786 174.338 383.237 174.296C382.687 174.253 382.307 173.788 382.349 173.281C382.391 172.774 382.856 172.394 383.406 172.436C383.955 172.478 384.335 172.901 384.293 173.45Z" fill="#FAF6EB" stroke="#1C2628" stroke-width="2.13" stroke-linecap="round" stroke-linejoin="round"/>
<path d="M390.464 171.634C390.422 172.141 389.957 172.521 389.407 172.479C388.858 172.437 388.478 171.972 388.52 171.465C388.562 170.958 389.027 170.577 389.576 170.619C390.084 170.662 390.506 171.127 390.464 171.634Z" fill="#FAF6EB" stroke="#1C2628" stroke-width="2.13" stroke-linecap="round" stroke-linejoin="round"/>
<path fill-rule="evenodd" clip-rule="evenodd" d="M379.137 179.072L377.531 176.071L379.137 179.072Z" fill="#FAF6EB"/>
<path d="M379.137 179.072L377.531 176.071" stroke="#1C2628" stroke-width="2.13" stroke-linecap="round" stroke-linejoin="round"/>
<path fill-rule="evenodd" clip-rule="evenodd" d="M385.012 176.874L383.406 173.873L385.012 176.874Z" fill="#FAF6EB"/>
<path d="M385.012 176.874L383.406 173.873" stroke="#1C2628" stroke-width="2.13" stroke-linecap="round" stroke-linejoin="round"/>
<path fill-rule="evenodd" clip-rule="evenodd" d="M391.183 175.184L389.619 172.183L391.183 175.184Z" fill="#FAF6EB"/>
<path d="M391.183 175.184L389.619 172.183" stroke="#1C2628" stroke-width="2.13" stroke-linecap="round" stroke-linejoin="round"/>
<path fill-rule="evenodd" clip-rule="evenodd" d="M365.147 175.48C365.147 175.48 367.471 172.31 365.4 169.69C363.329 167.069 358.342 162.124 358.342 162.124C358.342 162.124 358.13 165.548 355.468 166.646C352.805 167.745 345.831 168.802 345.831 168.802L345.155 172.268L351.03 172.86C351.03 172.86 355.13 172.733 358.426 173.536C361.808 174.339 365.147 175.48 365.147 175.48Z" fill="#FAF6EB" stroke="#1C2628" stroke-width="2.13" stroke-linecap="round" stroke-linejoin="round"/>
<path fill-rule="evenodd" clip-rule="evenodd" d="M404.412 169.731C404.412 169.731 402.891 167.745 398.96 167.533C395.029 167.322 392.62 167.195 392.62 167.195L392.197 169.351C392.197 169.351 394.902 169.182 395.029 170.492C395.114 171.802 395.621 173.324 395.621 173.324C395.621 173.324 397.903 172.944 401.623 171.76C403.82 171.084 404.412 169.731 404.412 169.731Z" fill="#FAF6EB" stroke="#1C2628" stroke-width="2.13" stroke-linecap="round" stroke-linejoin="round"/>
<path d="M392.409 169.394L379.644 169.182L374.107 161.405" stroke="#1C2628" stroke-width="2.13" stroke-linecap="round" stroke-linejoin="round"/>
<path fill-rule="evenodd" clip-rule="evenodd" d="M114.931 381.103L96.1231 381.526L60.1123 381.019L63.6204 362.549L79.6393 362.126C79.6393 362.126 79.0898 357.899 83.2742 358.068C86.4864 358.195 95.954 368.001 104.703 370.706C116.707 374.468 114.931 381.103 114.931 381.103Z" fill="#F3A13B"/>
<path fill-rule="evenodd" clip-rule="evenodd" d="M114.72 378.695L74.0179 378.483C72.8344 378.483 71.9046 379.329 71.8623 380.385V381.062C71.8623 382.118 72.7922 382.964 73.9756 382.964L114.678 383.175C115.861 383.175 116.791 382.33 116.833 381.273V380.597C116.833 379.582 115.904 378.695 114.72 378.695Z" fill="#1C2628" stroke="#1C2628" stroke-width="2.13" stroke-linecap="round" stroke-linejoin="round"/>
<path fill-rule="evenodd" clip-rule="evenodd" d="M77.4415 383.005L58.2104 382.709L59.3939 372.607C59.3939 372.607 69.1574 372.058 72.4964 375.186C75.8777 378.44 77.4415 383.005 77.4415 383.005Z" fill="#1C2628" stroke="#1C2628" stroke-width="2.13" stroke-linecap="round" stroke-linejoin="round"/>
<path fill-rule="evenodd" clip-rule="evenodd" d="M106.605 371.341L84.0349 357.52C84.0349 357.52 80.4422 358.069 79.5124 359.548C78.5825 360.985 80.2309 363.31 80.2309 363.31C80.2309 363.31 93.1221 371.932 98.6167 373.665C102.463 374.849 106.605 371.341 106.605 371.341Z" fill="#1C2628" stroke="#1C2628" stroke-width="2.13" stroke-linecap="round" stroke-linejoin="round"/>
<path d="M86.3173 365.888L78.498 380.512" stroke="#1C2628" stroke-width="2.13" stroke-linecap="round" stroke-linejoin="round"/>
<path d="M63.6207 362.549L61.7188 375.947" stroke="#1C2628" stroke-width="2.13" stroke-linecap="round" stroke-linejoin="round"/>
<path d="M63.0288 238.583L96.9685 282.793L87.5854 303.123" stroke="#1C2628" stroke-width="2.13" stroke-linecap="round" stroke-linejoin="round"/>
<path fill-rule="evenodd" clip-rule="evenodd" d="M356.652 199.698C350.777 208.617 326.009 244.247 302.593 249.741C297.31 250.967 290.928 250.967 284.081 250.206C288.18 246.022 294.816 243.528 300.733 241.33C311.427 237.357 313.878 239.259 318.105 235.456C323.811 230.341 320.852 225.565 326.347 216.309C327.995 213.519 334.758 203.037 346.804 200.417C349.086 199.91 352.89 199.445 356.652 199.698Z" fill="#1C2628" stroke="#1C2628" stroke-width="2.13" stroke-linecap="round" stroke-linejoin="round"/>
<path fill-rule="evenodd" clip-rule="evenodd" d="M220.512 230.679L195.279 266.52L213.623 319.311L204.62 320.663C195.533 316.479 188.686 307.983 187.756 299.488C187.249 294.754 189.109 294.796 188.77 288.752C188.179 276.791 180.867 274.551 182.135 267.112C183.318 260.138 190.038 260.434 193.039 250.797C194.815 245.049 192.955 243.274 194.645 238.625C196.167 234.525 200.056 229.453 210.707 225.438C213.538 226.367 217.173 227.931 220.512 230.679Z" fill="#1C2628" stroke="#1C2628" stroke-width="2.13" stroke-linecap="round" stroke-linejoin="round"/>
<path fill-rule="evenodd" clip-rule="evenodd" d="M263.793 196.232C258.974 198.726 255.001 199.233 252 199.106C244.562 198.768 241.265 194.372 233.615 195.725C227.74 196.739 226.599 199.867 222.287 199.698C217.385 199.529 213.285 195.26 210.115 190.399L236.658 183.045L263.793 196.232Z" fill="#1C2628" stroke="#1C2628" stroke-width="2.13" stroke-linecap="round" stroke-linejoin="round"/>
<path fill-rule="evenodd" clip-rule="evenodd" d="M244.139 174.127C244.139 174.127 230.656 176.663 224.485 177.847C219.963 178.692 214.848 182.454 204.028 185.37C203.69 184.06 203.563 182.665 204.24 181.524C205.423 179.453 208.044 180.129 212.566 178.143C217.342 176.029 216.835 174.254 220.512 173.197C225.33 171.845 227.401 174.634 230.149 173.071C233.53 171.126 231.67 166.223 234.418 161.236C235.052 160.095 235.855 159.081 236.785 158.108L244.139 174.127Z" fill="#1C2628" stroke="#1C2628" stroke-width="2.13" stroke-linecap="round" stroke-linejoin="round"/>
<path fill-rule="evenodd" clip-rule="evenodd" d="M123.976 22.7721C123.976 22.7721 125.118 9.07792 121.821 5.4853C119.074 2.52667 106.732 -0.516488 103.055 5.31624C99.3775 11.149 107.704 29.0275 107.704 29.0275L110.789 57.6417L133.655 56.5005C130.02 39.2137 123.976 22.7721 123.976 22.7721Z" fill="#F45B49" stroke="#1C2628" stroke-width="2.13" stroke-linecap="round" stroke-linejoin="round"/>
<path d="M108.803 18.207C112.057 12.5434 108.591 8.99302 108.591 8.99302C108.591 8.99302 115.692 9.45794 116.833 5.90759C118.355 1.04698 107.746 2.23044 107.746 2.23044" fill="#F45B49"/>
<path d="M108.803 18.207C112.057 12.5434 108.591 8.99302 108.591 8.99302C108.591 8.99302 115.692 9.45794 116.833 5.90759C118.355 1.04698 107.746 2.23044 107.746 2.23044" stroke="#1C2628" stroke-width="2.13" stroke-linecap="round" stroke-linejoin="round"/>
<path d="M115.185 14.3191C115.65 12.5439 114.889 10.1347 114.213 8.48633L115.185 14.3191Z" fill="#F45B49"/>
<path d="M115.185 14.3191C115.65 12.5439 114.889 10.1347 114.213 8.48633" stroke="#1C2628" stroke-width="2.13" stroke-linecap="round" stroke-linejoin="round"/>
<path d="M119.285 12.2052C119.707 9.88057 119.2 6.75287 117.34 5.10449L119.285 12.2052Z" fill="#F45B49"/>
<path d="M119.285 12.2052C119.707 9.88057 119.2 6.75287 117.34 5.10449" stroke="#1C2628" stroke-width="2.13" stroke-linecap="round" stroke-linejoin="round"/>
<path d="M232.897 39.1715L227.022 15.6293L227.36 15.4602L225.838 9.24707L202.296 21.1661L203.902 27.6751L204.24 27.506L209.608 49.1463C208.044 48.7236 206.1 49.1463 204.409 50.4566C201.958 52.4008 201.112 55.444 202.549 57.3037C203.987 59.1634 207.156 59.1211 209.65 57.1769C212.144 55.2749 212.947 52.1895 211.51 50.3298C211.468 50.2452 211.383 50.203 211.299 50.1184L206.269 29.9152L226.514 19.6023L231.121 38.1994C229.558 37.7767 227.571 38.1994 225.88 39.5096C223.387 41.4539 222.584 44.497 224.021 46.3567C225.458 48.2164 228.628 48.1742 231.121 46.2299C233.615 44.2857 234.418 41.2425 232.981 39.3828C233.023 39.256 232.939 39.2138 232.897 39.1715ZM205.973 28.4782L205.55 26.7875L225.754 16.3055L226.219 18.123L205.973 28.4782Z" fill="#1C2628" stroke="#1C2628" stroke-width="2.13" stroke-linecap="round" stroke-linejoin="round"/>
<path d="M165.736 63.8978C165.566 63.8555 165.355 63.8978 165.271 64.0668C163.115 67.0677 160.959 68.7161 158.762 68.9697C158.381 69.012 158.043 69.012 157.663 69.012C158.719 68.4202 159.438 67.3213 159.522 66.0533C159.649 64.0668 158.085 62.3339 156.099 62.2494C154.112 62.1226 152.379 63.6864 152.295 65.6729C152.168 67.6595 153.732 69.3924 155.718 69.4769C155.803 69.4769 155.888 69.4769 155.972 69.4769C156.944 69.815 157.916 69.9418 158.888 69.815C161.002 69.5614 163.115 68.1244 165.144 65.6307L164.721 73.4499C162.608 76.3663 160.452 77.9724 158.297 78.2683C157.916 78.3105 157.578 78.3105 157.198 78.3105C158.254 77.7188 158.973 76.6199 159.057 75.3519C159.142 73.3654 157.62 71.6325 155.634 71.5479C153.647 71.4634 151.914 72.985 151.83 74.9715C151.703 76.958 153.267 78.6909 155.254 78.7754C155.338 78.7754 155.423 78.7754 155.507 78.7754C156.226 79.029 156.902 79.1558 157.62 79.1558C157.874 79.1558 158.128 79.1558 158.423 79.1136C160.537 78.86 162.65 77.4229 164.679 74.9292L163.96 88.6234L164.763 88.6657L166.074 64.3627C165.989 64.1514 165.905 63.9823 165.736 63.8978Z" fill="#1C2628" stroke="#1C2628" stroke-width="2.13" stroke-linecap="round" stroke-linejoin="round"/>
<path d="M250.775 116.73C247.647 125.057 244.097 133.257 240.166 141.245" stroke="#1C2628" stroke-width="2.13" stroke-linecap="round" stroke-linejoin="round"/>
<path d="M257.326 98.2598C257.284 99.9504 256.946 101.683 256.354 103.247C255.974 104.177 255.509 105.149 255.593 106.121C256.565 106.502 257.791 105.572 257.706 104.515C257.495 104.388 257.199 104.557 257.03 104.769C255.34 106.586 254.367 108.995 254.325 111.447" stroke="#1C2628" stroke-width="2.13" stroke-linecap="round" stroke-linejoin="round"/>
<path d="M250.31 104.515C247.985 110.094 245.703 115.631 243.378 121.21" stroke="#1C2628" stroke-width="2.13" stroke-linecap="round" stroke-linejoin="round"/>
<path d="M80.3155 318.804L70.2139 340.613" stroke="#1C2628" stroke-width="2.13" stroke-linecap="round" stroke-linejoin="round"/>
<path d="M267.47 240.146C269.076 240.696 270.724 241.076 272.373 241.288C275.035 241.626 277.825 241.584 280.361 242.513" stroke="#1C2628" stroke-width="2.13" stroke-linecap="round" stroke-linejoin="round"/>
<path d="M280.403 239.597C284.334 239.513 288.265 239.048 291.942 237.695C293.759 237.019 295.492 236.131 297.268 235.371C301.748 233.469 306.566 232.454 311.342 231.693" stroke="#1C2628" stroke-width="2.13" stroke-linecap="round" stroke-linejoin="round"/>
<path d="M309.102 228.438C302.382 231.608 294.985 233.341 287.546 233.51" stroke="#1C2628" stroke-width="2.13" stroke-linecap="round" stroke-linejoin="round"/>
<path d="M78.7939 310.858C78.4135 310.816 78.0754 311.069 77.7795 311.365C76.6383 312.464 77.6527 313.69 76.7651 315.042" stroke="white" stroke-width="2.13" stroke-linecap="round" stroke-linejoin="round"/>
<path d="M91.7275 244.204C94.0522 248.811 88.473 251.009 100.054 257.222" stroke="#1C2628" stroke-width="2.13" stroke-linecap="round" stroke-linejoin="round"/>
</g>
</svg>
